<?xml version="1.0" encoding="UTF-8"?>
<svg width="162px" height="25px" viewBox="0 0 162 25" version="1.1" xmlns="http://www.w3.org/2000/svg" xmlns:xlink="http://www.w3.org/1999/xlink">
    <!-- Generator: Sketch 48.1 (47250) - http://www.bohemiancoding.com/sketch -->
    <title>Artboard</title>
    <desc>Created with Sketch.</desc>
    <defs></defs>
    <g id="Page-1" stroke="none" stroke-width="1" fill="none" fill-rule="evenodd">
        <g id="Artboard" fill="#0088FF">
            <path d="M11.7719727,12.4443359 L10.4887695,12.4443359 L10.4887695,10.8710938 L6.63916016,10.8710938 L6.63916016,12.4443359 L5.36035156,12.4443359 L5.36035156,9.88671875 L5.73388672,9.88671875 C6.06787276,9.88671875 6.30810474,9.66406473 6.45458984,9.21875 C6.60107495,8.77343527 6.69628884,8.06445799 6.74023438,7.09179688 L6.88525391,4.47265625 L11.0117188,4.47265625 L11.0117188,9.88671875 L11.7719727,9.88671875 L11.7719727,12.4443359 Z M8.0234375,7.09179688 C7.99414048,7.70996403 7.92675834,8.2519508 7.82128906,8.71777344 C7.71581979,9.18359608 7.57226653,9.57324062 7.390625,9.88671875 L9.73291016,9.88671875 L9.73291016,5.46142578 L8.11132812,5.46142578 L8.0234375,7.09179688 Z M14.5361328,7.31591797 L14.6503906,7.70263672 L14.6767578,7.70703125 L16.0214844,4.47265625 L17.3793945,4.47265625 L15.0458984,9.65820312 C14.8613272,10.0712911 14.6386732,10.3920887 14.3779297,10.6206055 C14.1171862,10.8491222 13.7524438,10.9633789 13.2836914,10.9633789 C13.1079093,10.9633789 12.9511726,10.9479982 12.8134766,10.9172363 C12.6757806,10.8864745 12.517579,10.8417972 12.3388672,10.7832031 L12.4882812,9.86474609 C12.6201178,9.90283222 12.7365718,9.93139639 12.8376465,9.95043945 C12.9387212,9.96948252 13.0405268,9.97900391 13.1430664,9.97900391 C13.383302,9.97900391 13.5678704,9.92700247 13.6967773,9.82299805 C13.8256842,9.71899362 13.9267574,9.56445415 14,9.359375 L14.0966797,9.11767578 L11.8422852,4.47265625 L13.2265625,4.47265625 L14.5361328,7.31591797 Z M25.4960938,10.8710938 L24.2128906,10.8710938 L24.2128906,8.21240234 L21.6069336,8.21240234 L21.6069336,10.8710938 L20.3237305,10.8710938 L20.3237305,4.47265625 L21.6069336,4.47265625 L21.6069336,7.22363281 L24.2128906,7.22363281 L24.2128906,4.47265625 L25.4960938,4.47265625 L25.4960938,10.8710938 Z M31.8461914,10.8710938 L30.5629883,10.8710938 L30.5629883,8.21240234 L27.9570313,8.21240234 L27.9570313,10.8710938 L26.6738281,10.8710938 L26.6738281,4.47265625 L27.9570313,4.47265625 L27.9570313,7.22363281 L30.5629883,7.22363281 L30.5629883,4.47265625 L31.8461914,4.47265625 L31.8461914,10.8710938 Z M32.9667969,4.47265625 L34.25,4.47265625 L34.25,9.88232422 L36.8603516,9.88232422 L36.8603516,4.47265625 L38.1435547,4.47265625 L38.1435547,9.88232422 L39.0004883,9.88232422 L39.0004883,12.4487305 L37.7172852,12.4487305 L37.7172852,10.8710938 L32.9667969,10.8710938 L32.9667969,4.47265625 Z M43.1577148,5.68115234 L42.7094727,6.77539062 L42.1425781,6.77539062 L42.1425781,4.47265625 L43.1577148,4.47265625 L43.1577148,5.68115234 Z M44.65625,5.68115234 L44.2080078,6.77539062 L43.6455078,6.77539062 L43.6455078,4.47265625 L44.65625,4.47265625 L44.65625,5.68115234 Z M47.1391602,10.8710938 L45.855957,10.8710938 L45.855957,4.47265625 L47.1391602,4.47265625 L47.1391602,10.8710938 Z M52.4213867,10.8710938 L51.1381836,10.8710938 L51.1381836,9.02539062 L49.5737305,9.02539062 L49.5737305,10.8710938 L48.2905273,10.8710938 L48.2905273,6.11621094 L49.5737305,6.11621094 L49.5737305,8.04101562 L51.1381836,8.04101562 L51.1381836,6.11621094 L52.4213867,6.11621094 L52.4213867,10.8710938 Z M55.3789062,9.97900391 C55.6015636,9.97900391 55.7788079,9.91235418 55.9106445,9.77905273 C56.0424811,9.64575129 56.1083984,9.46777455 56.1083984,9.24511719 L57.2773438,9.24511719 L57.2861328,9.27148438 C57.2978516,9.75195553 57.1191425,10.1540511 56.75,10.4777832 C56.3808575,10.8015153 55.9238308,10.9633789 55.3789062,10.9633789 C54.6757777,10.9633789 54.1323261,10.7385276 53.7485352,10.2888184 C53.3647442,9.83910908 53.1728516,9.26416366 53.1728516,8.56396484 L53.1728516,8.43212891 C53.1728516,7.73485979 53.3640118,7.15991437 53.7463379,6.70727539 C54.128664,6.25463641 54.6699184,6.02832031 55.3701172,6.02832031 C55.9501982,6.02832031 56.4174787,6.19531083 56.7719727,6.52929688 C57.1264666,6.86328292 57.2978516,7.30273165 57.2861328,7.84765625 L57.2773438,7.87402344 L56.1083984,7.87402344 C56.1083984,7.62792846 56.0432135,7.4235848 55.9128418,7.26098633 C55.7824701,7.09838786 55.6015637,7.01708984 55.3701172,7.01708984 C55.0390608,7.01708984 54.8039558,7.14965688 54.6647949,7.41479492 C54.5256341,7.67993297 54.4560547,8.0190409 54.4560547,8.43212891 L54.4560547,8.56396484 C54.4560547,8.98584195 54.5256341,9.32714713 54.6647949,9.58789062 C54.8039558,9.84863412 55.0419905,9.97900391 55.3789062,9.97900391 Z M62.0585938,7.09619141 L60.5380859,7.09619141 L60.5380859,10.8710938 L59.2504883,10.8710938 L59.2504883,7.09619141 L57.7519531,7.09619141 L57.7519531,6.11621094 L62.0585938,6.11621094 L62.0585938,7.09619141 Z M65.5742188,6.11621094 L66.8530273,6.11621094 L66.8530273,10.8710938 L65.5742188,10.8710938 L65.5742188,7.97070312 L65.5478516,7.96630859 L63.996582,10.8710938 L62.7133789,10.8710938 L62.7133789,6.11621094 L63.996582,6.11621094 L63.996582,9.0078125 L64.0229492,9.01220703 L65.5742188,6.11621094 Z M71.8408203,7.09619141 L70.3203125,7.09619141 L70.3203125,10.8710938 L69.0327148,10.8710938 L69.0327148,7.09619141 L67.5341797,7.09619141 L67.5341797,6.11621094 L71.8408203,6.11621094 L71.8408203,7.09619141 Z M74.2314453,8.87597656 L74.2841797,9.13964844 L74.3105469,9.13964844 L75.2202148,6.11621094 L76.6000977,6.11621094 L74.6708984,11.5830078 C74.5361321,11.9228533 74.3530285,12.2092274 74.121582,12.4421387 C73.8901356,12.67505 73.5429711,12.7915039 73.0800781,12.7915039 C72.9716791,12.7915039 72.8713384,12.7827149 72.7790527,12.7651367 C72.6867671,12.7475585 72.5747077,12.7226564 72.4428711,12.6904297 L72.5922852,11.7543945 C72.6303713,11.7602539 72.6713865,11.7661133 72.715332,11.7719727 C72.7592776,11.7778321 72.7988279,11.7807617 72.8339844,11.7807617 C73.0449229,11.7807617 73.207519,11.7287603 73.3217773,11.6247559 C73.4360357,11.5207514 73.5239255,11.3911141 73.5854492,11.2358398 L73.7348633,10.8666992 L72.0473633,6.11621094 L73.4272461,6.11621094 L74.2314453,8.87597656 Z M81.1396484,7.09619141 L79.6191406,7.09619141 L79.6191406,10.8710938 L78.331543,10.8710938 L78.331543,7.09619141 L76.8330078,7.09619141 L76.8330078,6.11621094 L81.1396484,6.11621094 L81.1396484,7.09619141 Z M85.9077148,9.09130859 L85.4155273,9.09130859 L85.4155273,10.8710938 L84.1323242,10.8710938 L84.1323242,6.11621094 L85.4155273,6.11621094 L85.4155273,7.92675781 L85.7978516,7.92675781 L86.8876953,6.11621094 L88.5092773,6.11621094 L86.9360352,8.32226562 L88.6499023,10.8710938 L86.9404297,10.8710938 L85.9077148,9.09130859 Z M91.9897461,10.8710938 C91.9428709,10.7626948 91.9025881,10.6484381 91.8688965,10.5283203 C91.8352049,10.4082025 91.8110352,10.2851569 91.7963867,10.1591797 C91.6645501,10.3906262 91.4902355,10.5825188 91.2734375,10.7348633 C91.0566395,10.8872078 90.7988296,10.9633789 90.5,10.9633789 C90.0019506,10.9633789 89.6181654,10.8352064 89.3486328,10.5788574 C89.0791002,10.3225085 88.9443359,9.97314674 88.9443359,9.53076172 C88.9443359,9.06493908 89.1237775,8.7038587 89.482666,8.44750977 C89.8415545,8.19116083 90.3652309,8.06298828 91.0537109,8.06298828 L91.7744141,8.06298828 L91.7744141,7.68505859 C91.7744141,7.45654183 91.7143561,7.2792975 91.5942383,7.15332031 C91.4741205,7.02734312 91.2954113,6.96435547 91.0581055,6.96435547 C90.8500966,6.96435547 90.6896978,7.01489207 90.5769043,7.1159668 C90.4641108,7.21704152 90.4077148,7.35546787 90.4077148,7.53125 L89.1728516,7.53125 L89.1640625,7.50488281 C89.1435546,7.10351362 89.3186017,6.75708154 89.689209,6.46557617 C90.0598163,6.17407081 90.5439423,6.02832031 91.1416016,6.02832031 C91.7128935,6.02832031 92.1750471,6.17187356 92.5280762,6.45898438 C92.8811053,6.74609519 93.0576172,7.15771216 93.0576172,7.69384766 L93.0576172,9.65820312 C93.0576172,9.88086049 93.0744627,10.090331 93.1081543,10.2866211 C93.1418459,10.4829111 93.1953121,10.6777334 93.2685547,10.8710938 L91.9897461,10.8710938 Z M90.8164062,10.0141602 C91.0390636,10.0141602 91.2382804,9.95849665 91.4140625,9.84716797 C91.5898446,9.73583929 91.7099606,9.60693433 91.7744141,9.46044922 L91.7744141,8.78808594 L91.0537109,8.78808594 C90.7812486,8.78808594 90.5754401,8.85546808 90.4362793,8.99023438 C90.2971184,9.12500067 90.2275391,9.29052636 90.2275391,9.48681641 C90.2275391,9.64795002 90.2795405,9.77612257 90.3835449,9.87133789 C90.4875493,9.96655321 90.631835,10.0141602 90.8164062,10.0141602 Z M98.309082,8.62548828 C98.309082,9.3286168 98.146486,9.89404083 97.8212891,10.3217773 C97.4960921,10.7495139 97.0419951,10.9633789 96.4589844,10.9633789 C96.2099597,10.9633789 95.9887705,10.9172368 95.7954102,10.8249512 C95.6020498,10.7326656 95.4365241,10.5971689 95.2988281,10.418457 L95.2988281,12.6992188 L94.0200195,12.6992188 L94.0200195,6.11621094 L95.1757813,6.11621094 L95.2504883,6.67871094 C95.391114,6.47070208 95.5603017,6.3103033 95.7580566,6.19750977 C95.9558115,6.08471623 96.1865221,6.02832031 96.4501953,6.02832031 C97.0390654,6.02832031 97.4960921,6.25829848 97.8212891,6.71826172 C98.146486,7.17822496 98.309082,7.78319937 98.309082,8.53320312 L98.309082,8.62548828 Z M97.0258789,8.53320312 C97.0258789,8.0849587 96.9511726,7.72168108 96.8017578,7.44335938 C96.652343,7.16503767 96.4238297,7.02587891 96.1162109,7.02587891 C95.9228506,7.02587891 95.7580573,7.06542929 95.6218262,7.14453125 C95.485595,7.22363321 95.3779301,7.33642505 95.2988281,7.48291016 L95.2988281,9.56591797 C95.3779301,9.70068427 95.485595,9.8032223 95.6218262,9.87353516 C95.7580573,9.94384801 95.9257803,9.97900391 96.125,9.97900391 C96.4355484,9.97900391 96.6633294,9.85742309 96.8083496,9.61425781 C96.9533699,9.37109253 97.0258789,9.04150599 97.0258789,8.62548828 L97.0258789,8.53320312 Z M99.2319336,9.88671875 L99.2319336,9.88232422 L99.3681641,9.88232422 C99.5996105,9.88232422 99.762939,9.74316545 99.8581543,9.46484375 C99.9533696,9.18652205 100.01709,8.71924156 100.049316,8.06298828 L100.145996,6.11621094 L103.666016,6.11621094 L103.666016,9.88671875 L104.320801,9.88671875 L104.320801,12.4443359 L103.037598,12.4443359 L103.037598,10.8710938 L100.211914,10.8710938 L100.211914,12.4443359 L98.9287109,12.4443359 L98.9287109,9.88671875 L99.2319336,9.88671875 Z M101.328125,8.06298828 C101.307617,8.45263867 101.270264,8.79907075 101.216064,9.10229492 C101.161865,9.40551909 101.086426,9.66699109 100.989746,9.88671875 L102.387207,9.88671875 L102.387207,7.14013672 L101.376465,7.14013672 L101.328125,8.06298828 Z M106.447754,10.8710938 L105.164551,10.8710938 L105.164551,6.11621094 L106.447754,6.11621094 L106.447754,10.8710938 Z M106.447754,4.97802734 L105.164551,4.97802734 L105.164551,4.015625 L106.447754,4.015625 L106.447754,4.97802734 Z M107.304688,8.44970703 C107.304688,7.74071911 107.502439,7.15991437 107.897949,6.70727539 C108.293459,6.25463641 108.841305,6.02832031 109.541504,6.02832031 C110.244632,6.02832031 110.795408,6.25390399 111.193848,6.70507812 C111.592287,7.15625226 111.791504,7.73778941 111.791504,8.44970703 L111.791504,8.54199219 C111.791504,9.25683951 111.59302,9.83910908 111.196045,10.2888184 C110.79907,10.7385276 110.250492,10.9633789 109.550293,10.9633789 C108.847164,10.9633789 108.297121,10.7385276 107.900146,10.2888184 C107.503172,9.83910908 107.304688,9.25683951 107.304688,8.54199219 L107.304688,8.44970703 Z M108.583496,8.54199219 C108.583496,8.97558811 108.659667,9.32348502 108.812012,9.58569336 C108.964356,9.8479017 109.210448,9.97900391 109.550293,9.97900391 C109.881349,9.97900391 110.123779,9.84716929 110.277588,9.58349609 C110.431397,9.3198229 110.508301,8.9726584 110.508301,8.54199219 L110.508301,8.44970703 C110.508301,8.02782992 110.430665,7.68359508 110.275391,7.41699219 C110.120116,7.15038929 109.87549,7.01708984 109.541504,7.01708984 C109.210448,7.01708984 108.968018,7.15112171 108.814209,7.41918945 C108.6604,7.6872572 108.583496,8.03075962 108.583496,8.44970703 L108.583496,8.54199219 Z M116.700195,6.11621094 L116.700195,10.8710938 L115.421387,10.8710938 L115.421387,7.109375 L114.278809,7.109375 L114.278809,8.14208984 C114.278809,9.07959453 114.135255,9.76879662 113.848145,10.2097168 C113.561034,10.650637 113.070316,10.8710938 112.375977,10.8710938 L112.169434,10.8710938 L112.15625,9.86035156 L112.29248,9.85595703 C112.585451,9.85595703 112.775878,9.73584104 112.86377,9.49560547 C112.951661,9.25536989 112.995605,8.80420253 112.995605,8.14208984 L112.995605,6.11621094 L116.700195,6.11621094 Z M117.434082,8.44970703 C117.434082,7.74071911 117.631834,7.15991437 118.027344,6.70727539 C118.422854,6.25463641 118.9707,6.02832031 119.670898,6.02832031 C120.374027,6.02832031 120.924803,6.25390399 121.323242,6.70507812 C121.721682,7.15625226 121.920898,7.73778941 121.920898,8.44970703 L121.920898,8.54199219 C121.920898,9.25683951 121.722414,9.83910908 121.325439,10.2888184 C120.928465,10.7385276 120.379886,10.9633789 119.679688,10.9633789 C118.976559,10.9633789 118.426516,10.7385276 118.029541,10.2888184 C117.632566,9.83910908 117.434082,9.25683951 117.434082,8.54199219 L117.434082,8.44970703 Z M118.712891,8.54199219 C118.712891,8.97558811 118.789062,9.32348502 118.941406,9.58569336 C119.093751,9.8479017 119.339842,9.97900391 119.679688,9.97900391 C120.010744,9.97900391 120.253173,9.84716929 120.406982,9.58349609 C120.560792,9.3198229 120.637695,8.9726584 120.637695,8.54199219 L120.637695,8.44970703 C120.637695,8.02782992 120.560059,7.68359508 120.404785,7.41699219 C120.249511,7.15038929 120.004884,7.01708984 119.670898,7.01708984 C119.339842,7.01708984 119.097413,7.15112171 118.943604,7.41918945 C118.789794,7.6872572 118.712891,8.03075962 118.712891,8.44970703 L118.712891,8.54199219 Z M125.9375,7.109375 L123.973145,7.109375 L123.973145,10.8710938 L122.689941,10.8710938 L122.689941,6.11621094 L125.9375,6.11621094 L125.9375,7.109375 Z M127.818359,10.8710938 L126.535156,10.8710938 L126.535156,6.11621094 L127.818359,6.11621094 L127.818359,10.8710938 Z M127.818359,4.97802734 L126.535156,4.97802734 L126.535156,4.015625 L127.818359,4.015625 L127.818359,4.97802734 Z M130.248535,10.8710938 L128.965332,10.8710938 L128.965332,6.11621094 L130.248535,6.11621094 L130.248535,10.8710938 Z M131.298828,5.34277344 L130.129883,5.34277344 L130.129883,4.44628906 L131.298828,4.44628906 L131.298828,5.34277344 Z M129.101562,5.34277344 L127.932617,5.34277344 L127.932617,4.44628906 L129.101562,4.44628906 L129.101562,5.34277344 Z M134.933105,10.8710938 L133.649902,10.8710938 L133.649902,6.11621094 L134.933105,6.11621094 L134.933105,10.8710938 Z M134.933105,4.97802734 L133.649902,4.97802734 L133.649902,4.015625 L134.933105,4.015625 L134.933105,4.97802734 Z M138.861816,9.37695312 L138.888184,9.37695312 L140.114258,6.11621094 L141.718262,6.11621094 L141.718262,10.8710938 L140.439453,10.8710938 L140.439453,8.03222656 L140.413086,8.02783203 L139.310059,10.8710938 L138.44873,10.8710938 L137.37207,8.08935547 L137.345703,8.09375 L137.345703,10.8710938 L136.0625,10.8710938 L136.0625,6.11621094 L137.65332,6.11621094 L138.861816,9.37695312 Z M144.891113,10.9633789 C144.182125,10.9633789 143.62842,10.7458518 143.22998,10.310791 C142.831541,9.87573025 142.632324,9.31543312 142.632324,8.62988281 L142.632324,8.45410156 C142.632324,7.74218394 142.825682,7.15918196 143.212402,6.70507812 C143.599123,6.25097429 144.130856,6.02539061 144.807617,6.02832031 C145.446292,6.02832031 145.936278,6.223875 146.277588,6.61499023 C146.618898,7.00610547 146.789551,7.53271153 146.789551,8.19482422 L146.789551,8.85839844 L143.955078,8.85839844 L143.941895,8.88476562 C143.962402,9.20996256 144.061278,9.4736318 144.238525,9.67578125 C144.415772,9.8779307 144.678709,9.97900391 145.027344,9.97900391 C145.314455,9.97900391 145.558349,9.94970732 145.759033,9.89111328 C145.959718,9.83251924 146.166991,9.74316466 146.380859,9.62304688 L146.728027,10.4140625 C146.537597,10.5693367 146.279787,10.6997065 145.95459,10.8051758 C145.629393,10.9106451 145.274904,10.9633789 144.891113,10.9633789 Z M144.807617,7.01708984 C144.549803,7.01708984 144.351319,7.105712 144.212158,7.28295898 C144.072997,7.46020596 143.98877,7.69531104 143.959473,7.98828125 L143.968262,8.01025391 L145.532715,8.01025391 L145.532715,7.91357422 C145.532715,7.63525251 145.475587,7.41626056 145.361328,7.2565918 C145.24707,7.09692303 145.062501,7.01708984 144.807617,7.01708984 Z M151.645508,10.8710938 L150.362305,10.8710938 L150.362305,9.02539062 L148.797852,9.02539062 L148.797852,10.8710938 L147.514648,10.8710938 L147.514648,6.11621094 L148.797852,6.11621094 L148.797852,8.04101562 L150.362305,8.04101562 L150.362305,6.11621094 L151.645508,6.11621094 L151.645508,10.8710938 Z M153.96582,10.8710938 L152.682617,10.8710938 L152.682617,6.11621094 L153.96582,6.11621094 L153.96582,10.8710938 Z M153.96582,4.97802734 L152.682617,4.97802734 L152.682617,4.015625 L153.96582,4.015625 L153.96582,4.97802734 Z M8.59472656,18.8710938 C8.54785133,18.7626948 8.50756853,18.6484381 8.47387695,18.5283203 C8.44018538,18.4082025 8.4160157,18.2851569 8.40136719,18.1591797 C8.26953059,18.3906262 8.09521593,18.5825188 7.87841797,18.7348633 C7.66162001,18.8872078 7.40381009,18.9633789 7.10498047,18.9633789 C6.6069311,18.9633789 6.22314588,18.8352064 5.95361328,18.5788574 C5.68408068,18.3225085 5.54931641,17.9731467 5.54931641,17.5307617 C5.54931641,17.0649391 5.72875797,16.7038587 6.08764648,16.4475098 C6.446535,16.1911608 6.9702114,16.0629883 7.65869141,16.0629883 L8.37939453,16.0629883 L8.37939453,15.6850586 C8.37939453,15.4565418 8.31933654,15.2792975 8.19921875,15.1533203 C8.07910096,15.0273431 7.90039181,14.9643555 7.66308594,14.9643555 C7.45507708,14.9643555 7.2946783,15.0148921 7.18188477,15.1159668 C7.06909123,15.2170415 7.01269531,15.3554679 7.01269531,15.53125 L5.77783203,15.53125 L5.76904297,15.5048828 C5.74853505,15.1035136 5.92358213,14.7570815 6.29418945,14.4655762 C6.66479677,14.1740708 7.14892279,14.0283203 7.74658203,14.0283203 C8.31787395,14.0283203 8.78002753,14.1718736 9.13305664,14.4589844 C9.48608575,14.7460952 9.66259766,15.1577122 9.66259766,15.6938477 L9.66259766,17.6582031 C9.66259766,17.8808605 9.67944319,18.090331 9.71313477,18.2866211 C9.74682634,18.4829111 9.8002926,18.6777334 9.87353516,18.8710938 L8.59472656,18.8710938 Z M7.42138672,18.0141602 C7.64404408,18.0141602 7.84326084,17.9584967 8.01904297,17.847168 C8.1948251,17.7358393 8.31494108,17.6069343 8.37939453,17.4604492 L8.37939453,16.7880859 L7.65869141,16.7880859 C7.38622911,16.7880859 7.18042062,16.8554681 7.04125977,16.9902344 C6.90209891,17.1250007 6.83251953,17.2905264 6.83251953,17.4868164 C6.83251953,17.64795 6.88452096,17.7761226 6.98852539,17.8713379 C7.09252982,17.9665532 7.23681548,18.0141602 7.42138672,18.0141602 Z M12.4750977,17.0913086 L11.9829102,17.0913086 L11.9829102,18.8710938 L10.699707,18.8710938 L10.699707,14.1162109 L11.9829102,14.1162109 L11.9829102,15.9267578 L12.3652344,15.9267578 L13.4550781,14.1162109 L15.0766602,14.1162109 L13.503418,16.3222656 L15.2172852,18.8710938 L13.5078125,18.8710938 L12.4750977,17.0913086 Z M18.5571289,18.8710938 C18.5102537,18.7626948 18.4699709,18.6484381 18.4362793,18.5283203 C18.4025877,18.4082025 18.378418,18.2851569 18.3637695,18.1591797 C18.2319329,18.3906262 18.0576183,18.5825188 17.8408203,18.7348633 C17.6240224,18.8872078 17.3662124,18.9633789 17.0673828,18.9633789 C16.5693334,18.9633789 16.1855482,18.8352064 15.9160156,18.5788574 C15.646483,18.3225085 15.5117188,17.9731467 15.5117188,17.5307617 C15.5117188,17.0649391 15.6911603,16.7038587 16.0500488,16.4475098 C16.4089373,16.1911608 16.9326137,16.0629883 17.6210938,16.0629883 L18.3417969,16.0629883 L18.3417969,15.6850586 C18.3417969,15.4565418 18.2817389,15.2792975 18.1616211,15.1533203 C18.0415033,15.0273431 17.8627942,14.9643555 17.6254883,14.9643555 C17.4174794,14.9643555 17.2570806,15.0148921 17.1442871,15.1159668 C17.0314936,15.2170415 16.9750977,15.3554679 16.9750977,15.53125 L15.7402344,15.53125 L15.7314453,15.5048828 C15.7109374,15.1035136 15.8859845,14.7570815 16.2565918,14.4655762 C16.6271991,14.1740708 17.1113251,14.0283203 17.7089844,14.0283203 C18.2802763,14.0283203 18.7424299,14.1718736 19.095459,14.4589844 C19.4484881,14.7460952 19.625,15.1577122 19.625,15.6938477 L19.625,17.6582031 C19.625,17.8808605 19.6418455,18.090331 19.6755371,18.2866211 C19.7092287,18.4829111 19.7626949,18.6777334 19.8359375,18.8710938 L18.5571289,18.8710938 Z M17.3837891,18.0141602 C17.6064464,18.0141602 17.8056632,17.9584967 17.9814453,17.847168 C18.1572274,17.7358393 18.2773434,17.6069343 18.3417969,17.4604492 L18.3417969,16.7880859 L17.6210938,16.7880859 C17.3486315,16.7880859 17.142823,16.8554681 17.0036621,16.9902344 C16.8645013,17.1250007 16.7949219,17.2905264 16.7949219,17.4868164 C16.7949219,17.64795 16.8469233,17.7761226 16.9509277,17.8713379 C17.0549322,17.9665532 17.1992178,18.0141602 17.3837891,18.0141602 Z M20.7192383,17.8867188 L20.7192383,17.8823242 L20.8554688,17.8823242 C21.0869152,17.8823242 21.2502437,17.7431655 21.345459,17.4648438 C21.4406743,17.186522 21.5043944,16.7192416 21.5366211,16.0629883 L21.6333008,14.1162109 L25.1533203,14.1162109 L25.1533203,17.8867188 L25.8081055,17.8867188 L25.8081055,20.4443359 L24.5249023,20.4443359 L24.5249023,18.8710938 L21.6992188,18.8710938 L21.6992188,20.4443359 L20.4160156,20.4443359 L20.4160156,17.8867188 L20.7192383,17.8867188 Z M22.8154297,16.0629883 C22.7949218,16.4526387 22.7575686,16.7990707 22.7033691,17.1022949 C22.6491697,17.4055191 22.573731,17.6669911 22.4770508,17.8867188 L23.8745117,17.8867188 L23.8745117,15.1401367 L22.8637695,15.1401367 L22.8154297,16.0629883 Z M28.6469727,18.9633789 C27.9379847,18.9633789 27.3842793,18.7458518 26.9858398,18.310791 C26.5874004,17.8757302 26.3881836,17.3154331 26.3881836,16.6298828 L26.3881836,16.4541016 C26.3881836,15.7421839 26.581541,15.159182 26.9682617,14.7050781 C27.3549824,14.2509743 27.8867154,14.0253906 28.5634766,14.0283203 C29.2021516,14.0283203 29.692137,14.223875 30.0334473,14.6149902 C30.3747576,15.0061055 30.5454102,15.5327115 30.5454102,16.1948242 L30.5454102,16.8583984 L27.7109375,16.8583984 L27.6977539,16.8847656 C27.7182618,17.2099626 27.8171378,17.4736318 27.9943848,17.6757812 C28.1716317,17.8779307 28.4345686,17.9790039 28.7832031,17.9790039 C29.0703139,17.9790039 29.314208,17.9497073 29.5148926,17.8911133 C29.7155772,17.8325192 29.9228505,17.7431647 30.1367188,17.6230469 L30.4838867,18.4140625 C30.2934561,18.5693367 30.0356462,18.6997065 29.7104492,18.8051758 C29.3852523,18.9106451 29.0307636,18.9633789 28.6469727,18.9633789 Z M28.5634766,15.0170898 C28.3056628,15.0170898 28.1071784,15.105712 27.9680176,15.282959 C27.8288567,15.460206 27.7446291,15.695311 27.715332,15.9882812 L27.7241211,16.0102539 L29.2885742,16.0102539 L29.2885742,15.9135742 C29.2885742,15.6352525 29.2314459,15.4162606 29.1171875,15.2565918 C29.0029291,15.096923 28.8183606,15.0170898 28.5634766,15.0170898 Z M34.1665039,17.3769531 L34.1928711,17.3769531 L35.4189453,14.1162109 L37.0229492,14.1162109 L37.0229492,18.8710938 L35.7441406,18.8710938 L35.7441406,16.0322266 L35.7177734,16.027832 L34.6147461,18.8710938 L33.753418,18.8710938 L32.6767578,16.0893555 L32.6503906,16.09375 L32.6503906,18.8710938 L31.3671875,18.8710938 L31.3671875,14.1162109 L32.9580078,14.1162109 L34.1665039,17.3769531 Z M39.4838867,18.8710938 L38.2006836,18.8710938 L38.2006836,14.1162109 L39.4838867,14.1162109 L39.4838867,18.8710938 Z M39.4838867,12.9780273 L38.2006836,12.9780273 L38.2006836,12.015625 L39.4838867,12.015625 L39.4838867,12.9780273 Z M42.3886719,17.0913086 L41.8964844,17.0913086 L41.8964844,18.8710938 L40.6132812,18.8710938 L40.6132812,14.1162109 L41.8964844,14.1162109 L41.8964844,15.9267578 L42.2788086,15.9267578 L43.3686523,14.1162109 L44.9902344,14.1162109 L43.4169922,16.3222656 L45.1308594,18.8710938 L43.4213867,18.8710938 L42.3886719,17.0913086 Z M48.4707031,18.8710938 C48.4238279,18.7626948 48.3835451,18.6484381 48.3498535,18.5283203 C48.3161619,18.4082025 48.2919923,18.2851569 48.2773438,18.1591797 C48.1455072,18.3906262 47.9711925,18.5825188 47.7543945,18.7348633 C47.5375966,18.8872078 47.2797867,18.9633789 46.980957,18.9633789 C46.4829077,18.9633789 46.0991224,18.8352064 45.8295898,18.5788574 C45.5600572,18.3225085 45.425293,17.9731467 45.425293,17.5307617 C45.425293,17.0649391 45.6047345,16.7038587 45.963623,16.4475098 C46.3225116,16.1911608 46.846188,16.0629883 47.534668,16.0629883 L48.2553711,16.0629883 L48.2553711,15.6850586 C48.2553711,15.4565418 48.1953131,15.2792975 48.0751953,15.1533203 C47.9550775,15.0273431 47.7763684,14.9643555 47.5390625,14.9643555 C47.3310536,14.9643555 47.1706549,15.0148921 47.0578613,15.1159668 C46.9450678,15.2170415 46.8886719,15.3554679 46.8886719,15.53125 L45.6538086,15.53125 L45.6450195,15.5048828 C45.6245116,15.1035136 45.7995587,14.7570815 46.170166,14.4655762 C46.5407733,14.1740708 47.0248994,14.0283203 47.6225586,14.0283203 C48.1938505,14.0283203 48.6560041,14.1718736 49.0090332,14.4589844 C49.3620623,14.7460952 49.5385742,15.1577122 49.5385742,15.6938477 L49.5385742,17.6582031 C49.5385742,17.8808605 49.5554198,18.090331 49.5891113,18.2866211 C49.6228029,18.4829111 49.6762692,18.6777334 49.7495117,18.8710938 L48.4707031,18.8710938 Z M47.2973633,18.0141602 C47.5200206,18.0141602 47.7192374,17.9584967 47.8950195,17.847168 C48.0708017,17.7358393 48.1909176,17.6069343 48.2553711,17.4604492 L48.2553711,16.7880859 L47.534668,16.7880859 C47.2622057,16.7880859 47.0563972,16.8554681 46.9172363,16.9902344 C46.7780755,17.1250007 46.7084961,17.2905264 46.7084961,17.4868164 C46.7084961,17.64795 46.7604975,17.7761226 46.864502,17.8713379 C46.9685064,17.9665532 47.112792,18.0141602 47.2973633,18.0141602 Z M56.1479492,17.1879883 L56.1743164,17.1879883 L57.8178711,12.4726562 L59.4921875,12.4726562 L59.4921875,18.8710938 L58.2089844,18.8710938 L58.2089844,14.5029297 L58.1826172,14.4985352 L56.6005859,18.8710938 L55.7304688,18.8710938 L54.1484375,14.4897461 L54.1220703,14.4941406 L54.1220703,18.8710938 L52.8388672,18.8710938 L52.8388672,12.4726562 L54.5219727,12.4726562 L56.1479492,17.1879883 Z M61.9970703,18.8710938 L60.7138672,18.8710938 L60.7138672,17.7460938 L61.9970703,17.7460938 L61.9970703,18.8710938 Z M69.1733398,20.4443359 L67.8901367,20.4443359 L67.8901367,18.8710938 L64.0405273,18.8710938 L64.0405273,20.4443359 L62.7617188,20.4443359 L62.7617188,17.8867188 L63.1352539,17.8867188 C63.46924,17.8867188 63.7094719,17.6640647 63.855957,17.21875 C64.0024421,16.7734353 64.097656,16.064458 64.1416016,15.0917969 L64.2866211,12.4726562 L68.4130859,12.4726562 L68.4130859,17.8867188 L69.1733398,17.8867188 L69.1733398,20.4443359 Z M65.4248047,15.0917969 C65.3955077,15.709964 65.3281255,16.2519508 65.2226562,16.7177734 C65.117187,17.1835961 64.9736337,17.5732406 64.7919922,17.8867188 L67.1342773,17.8867188 L67.1342773,13.4614258 L65.5126953,13.4614258 L65.4248047,15.0917969 Z M71.0541992,18.8710938 L69.7709961,18.8710938 L69.7709961,17.7460938 L71.0541992,17.7460938 L71.0541992,18.8710938 Z M79.3862305,16.7529297 L79.3950195,16.7792969 C79.4067383,17.4619175 79.1987326,17.9965801 78.7709961,18.3833008 C78.3432596,18.7700215 77.7529335,18.9633789 77,18.9633789 C76.232418,18.9633789 75.6127953,18.7165552 75.1411133,18.2229004 C74.6694312,17.7292456 74.4335938,17.0913125 74.4335938,16.309082 L74.4335938,15.0390625 C74.4335938,14.2597617 74.6635719,13.6218287 75.1235352,13.1252441 C75.5834984,12.6286596 76.187008,12.3803711 76.934082,12.3803711 C77.7133828,12.3803711 78.3227517,12.5707989 78.762207,12.9516602 C79.2016624,13.3325214 79.4155274,13.8686489 79.4038086,14.5600586 L79.3950195,14.5864258 L78.1469727,14.5864258 C78.1469727,14.1762675 78.0480967,13.8708506 77.8503418,13.670166 C77.6525869,13.4694814 77.34717,13.3691406 76.934082,13.3691406 C76.550291,13.3691406 76.2507335,13.5236801 76.0354004,13.8327637 C75.8200673,14.1418472 75.7124023,14.5410132 75.7124023,15.0302734 L75.7124023,16.309082 C75.7124023,16.801272 75.8259266,17.2026352 76.0529785,17.5131836 C76.2800304,17.823732 76.5957011,17.9790039 77,17.9790039 C77.383791,17.9790039 77.6701651,17.8786631 77.8591309,17.6779785 C78.0480966,17.4772939 78.1425781,17.1689474 78.1425781,16.7529297 L79.3862305,16.7529297 Z M84.2421875,15.0961914 L82.7216797,15.0961914 L82.7216797,18.8710938 L81.434082,18.8710938 L81.434082,15.0961914 L79.9355469,15.0961914 L79.9355469,14.1162109 L84.2421875,14.1162109 L84.2421875,15.0961914 Z M89.2080078,16.6254883 C89.2080078,17.3286168 89.0454118,17.8940408 88.7202148,18.3217773 C88.3950179,18.7495139 87.9409209,18.9633789 87.3579102,18.9633789 C87.1088855,18.9633789 86.8876963,18.9172368 86.6943359,18.8249512 C86.5009756,18.7326656 86.3354499,18.5971689 86.1977539,18.418457 L86.1977539,20.6992188 L84.9189453,20.6992188 L84.9189453,14.1162109 L86.074707,14.1162109 L86.1494141,14.6787109 C86.2900398,14.4707021 86.4592275,14.3103033 86.6569824,14.1975098 C86.8547373,14.0847162 87.0854479,14.0283203 87.3491211,14.0283203 C87.9379912,14.0283203 88.3950179,14.2582985 88.7202148,14.7182617 C89.0454118,15.178225 89.2080078,15.7831994 89.2080078,16.5332031 L89.2080078,16.6254883 Z M87.9248047,16.5332031 C87.9248047,16.0849587 87.8500984,15.7216811 87.7006836,15.4433594 C87.5512688,15.1650377 87.3227554,15.0258789 87.0151367,15.0258789 C86.8217764,15.0258789 86.6569831,15.0654293 86.520752,15.1445312 C86.3845208,15.2236332 86.2768559,15.336425 86.1977539,15.4829102 L86.1977539,17.565918 C86.2768559,17.7006843 86.3845208,17.8032223 86.520752,17.8735352 C86.6569831,17.943848 86.824706,17.9790039 87.0239258,17.9790039 C87.3344742,17.9790039 87.5622551,17.8574231 87.7072754,17.6142578 C87.8522956,17.3710925 87.9248047,17.041506 87.9248047,16.6254883 L87.9248047,16.5332031 Z M92.8027344,18.8710938 C92.7558591,18.7626948 92.7155763,18.6484381 92.6818848,18.5283203 C92.6481932,18.4082025 92.6240235,18.2851569 92.609375,18.1591797 C92.4775384,18.3906262 92.3032237,18.5825188 92.0864258,18.7348633 C91.8696278,18.8872078 91.6118179,18.9633789 91.3129883,18.9633789 C90.8149389,18.9633789 90.4311537,18.8352064 90.1616211,18.5788574 C89.8920885,18.3225085 89.7573242,17.9731467 89.7573242,17.5307617 C89.7573242,17.0649391 89.9367658,16.7038587 90.2956543,16.4475098 C90.6545428,16.1911608 91.1782192,16.0629883 91.8666992,16.0629883 L92.5874023,16.0629883 L92.5874023,15.6850586 C92.5874023,15.4565418 92.5273444,15.2792975 92.4072266,15.1533203 C92.2871088,15.0273431 92.1083996,14.9643555 91.8710938,14.9643555 C91.6630849,14.9643555 91.5026861,15.0148921 91.3898926,15.1159668 C91.277099,15.2170415 91.2207031,15.3554679 91.2207031,15.53125 L89.9858398,15.53125 L89.9770508,15.5048828 C89.9565429,15.1035136 90.1315899,14.7570815 90.5021973,14.4655762 C90.8728046,14.1740708 91.3569306,14.0283203 91.9545898,14.0283203 C92.5258818,14.0283203 92.9880353,14.1718736 93.3410645,14.4589844 C93.6940936,14.7460952 93.8706055,15.1577122 93.8706055,15.6938477 L93.8706055,17.6582031 C93.8706055,17.8808605 93.887451,18.090331 93.9211426,18.2866211 C93.9548342,18.4829111 94.0083004,18.6777334 94.081543,18.8710938 L92.8027344,18.8710938 Z M91.6293945,18.0141602 C91.8520519,18.0141602 92.0512687,17.9584967 92.2270508,17.847168 C92.4028329,17.7358393 92.5229489,17.6069343 92.5874023,17.4604492 L92.5874023,16.7880859 L91.8666992,16.7880859 C91.5942369,16.7880859 91.3884284,16.8554681 91.2492676,16.9902344 C91.1101067,17.1250007 91.0405273,17.2905264 91.0405273,17.4868164 C91.0405273,17.64795 91.0925288,17.7761226 91.1965332,17.8713379 C91.3005376,17.9665532 91.4448233,18.0141602 91.6293945,18.0141602 Z M98.9770508,17.078125 L98.6210938,17.078125 L98.6210938,18.8710938 L97.3466797,18.8710938 L97.3466797,17.078125 L96.9995117,17.078125 L96.059082,18.8710938 L94.4155273,18.8710938 L95.9711914,16.2958984 L94.4946289,14.1162109 L96.1118164,14.1162109 L97.0917969,15.9091797 L97.3466797,15.9091797 L97.3466797,14.1162109 L98.6210938,14.1162109 L98.6210938,15.9091797 L98.8891602,15.9091797 L99.8647461,14.1162109 L101.486328,14.1162109 L100.005371,16.300293 L101.556641,18.8710938 L99.9174805,18.8710938 L98.9770508,17.078125 Z M104.193359,18.9633789 C103.484371,18.9633789 102.930666,18.7458518 102.532227,18.310791 C102.133787,17.8757302 101.93457,17.3154331 101.93457,16.6298828 L101.93457,16.4541016 C101.93457,15.7421839 102.127928,15.159182 102.514648,14.7050781 C102.901369,14.2509743 103.433102,14.0253906 104.109863,14.0283203 C104.748538,14.0283203 105.238524,14.223875 105.579834,14.6149902 C105.921144,15.0061055 106.091797,15.5327115 106.091797,16.1948242 L106.091797,16.8583984 L103.257324,16.8583984 L103.244141,16.8847656 C103.264649,17.2099626 103.363525,17.4736318 103.540771,17.6757812 C103.718018,17.8779307 103.980955,17.9790039 104.32959,17.9790039 C104.616701,17.9790039 104.860595,17.9497073 105.061279,17.8911133 C105.261964,17.8325192 105.469237,17.7431647 105.683105,17.6230469 L106.030273,18.4140625 C105.839843,18.5693367 105.582033,18.6997065 105.256836,18.8051758 C104.931639,18.9106451 104.57715,18.9633789 104.193359,18.9633789 Z M104.109863,15.0170898 C103.852049,15.0170898 103.653565,15.105712 103.514404,15.282959 C103.375243,15.460206 103.291016,15.695311 103.261719,15.9882812 L103.270508,16.0102539 L104.834961,16.0102539 L104.834961,15.9135742 C104.834961,15.6352525 104.777833,15.4162606 104.663574,15.2565918 C104.549316,15.096923 104.364747,15.0170898 104.109863,15.0170898 Z M108.825195,17.9790039 C109.047853,17.9790039 109.225097,17.9123542 109.356934,17.7790527 C109.48877,17.6457513 109.554688,17.4677746 109.554688,17.2451172 L110.723633,17.2451172 L110.732422,17.2714844 C110.744141,17.7519555 110.565432,18.1540511 110.196289,18.4777832 C109.827147,18.8015153 109.37012,18.9633789 108.825195,18.9633789 C108.122067,18.9633789 107.578615,18.7385276 107.194824,18.2888184 C106.811033,17.8391091 106.619141,17.2641637 106.619141,16.5639648 L106.619141,16.4321289 C106.619141,15.7348598 106.810301,15.1599144 107.192627,14.7072754 C107.574953,14.2546364 108.116207,14.0283203 108.816406,14.0283203 C109.396487,14.0283203 109.863768,14.1953108 110.218262,14.5292969 C110.572756,14.8632829 110.744141,15.3027317 110.732422,15.8476562 L110.723633,15.8740234 L109.554688,15.8740234 C109.554688,15.6279285 109.489503,15.4235848 109.359131,15.2609863 C109.228759,15.0983879 109.047853,15.0170898 108.816406,15.0170898 C108.48535,15.0170898 108.250245,15.1496569 108.111084,15.4147949 C107.971923,15.679933 107.902344,16.0190409 107.902344,16.4321289 L107.902344,16.5639648 C107.902344,16.985842 107.971923,17.3271471 108.111084,17.5878906 C108.250245,17.8486341 108.48828,17.9790039 108.825195,17.9790039 Z M113.32959,17.0913086 L112.837402,17.0913086 L112.837402,18.8710938 L111.554199,18.8710938 L111.554199,14.1162109 L112.837402,14.1162109 L112.837402,15.9267578 L113.219727,15.9267578 L114.30957,14.1162109 L115.931152,14.1162109 L114.35791,16.3222656 L116.071777,18.8710938 L114.362305,18.8710938 L113.32959,17.0913086 Z M119.411621,18.8710938 C119.364746,18.7626948 119.324463,18.6484381 119.290771,18.5283203 C119.25708,18.4082025 119.23291,18.2851569 119.218262,18.1591797 C119.086425,18.3906262 118.91211,18.5825188 118.695313,18.7348633 C118.478515,18.8872078 118.220705,18.9633789 117.921875,18.9633789 C117.423826,18.9633789 117.04004,18.8352064 116.770508,18.5788574 C116.500975,18.3225085 116.366211,17.9731467 116.366211,17.5307617 C116.366211,17.0649391 116.545653,16.7038587 116.904541,16.4475098 C117.26343,16.1911608 117.787106,16.0629883 118.475586,16.0629883 L119.196289,16.0629883 L119.196289,15.6850586 C119.196289,15.4565418 119.136231,15.2792975 119.016113,15.1533203 C118.895995,15.0273431 118.717286,14.9643555 118.47998,14.9643555 C118.271972,14.9643555 118.111573,15.0148921 117.998779,15.1159668 C117.885986,15.2170415 117.82959,15.3554679 117.82959,15.53125 L116.594727,15.53125 L116.585938,15.5048828 C116.56543,15.1035136 116.740477,14.7570815 117.111084,14.4655762 C117.481691,14.1740708 117.965817,14.0283203 118.563477,14.0283203 C119.134768,14.0283203 119.596922,14.1718736 119.949951,14.4589844 C120.30298,14.7460952 120.479492,15.1577122 120.479492,15.6938477 L120.479492,17.6582031 C120.479492,17.8808605 120.496338,18.090331 120.530029,18.2866211 C120.563721,18.4829111 120.617187,18.6777334 120.69043,18.8710938 L119.411621,18.8710938 Z M118.238281,18.0141602 C118.460939,18.0141602 118.660155,17.9584967 118.835938,17.847168 C119.01172,17.7358393 119.131836,17.6069343 119.196289,17.4604492 L119.196289,16.7880859 L118.475586,16.7880859 C118.203124,16.7880859 117.997315,16.8554681 117.858154,16.9902344 C117.718993,17.1250007 117.649414,17.2905264 117.649414,17.4868164 C117.649414,17.64795 117.701415,17.7761226 117.80542,17.8713379 C117.909424,17.9665532 118.05371,18.0141602 118.238281,18.0141602 Z M122.584473,13.6811523 L122.13623,14.7753906 L121.569336,14.7753906 L121.569336,12.4726562 L122.584473,12.4726562 L122.584473,13.6811523 Z M124.083008,13.6811523 L123.634766,14.7753906 L123.072266,14.7753906 L123.072266,12.4726562 L124.083008,12.4726562 L124.083008,13.6811523 Z M132.608398,18.8710938 L131.325195,18.8710938 L131.325195,16.2124023 L128.719238,16.2124023 L128.719238,18.8710938 L127.436035,18.8710938 L127.436035,12.4726562 L128.719238,12.4726562 L128.719238,15.2236328 L131.325195,15.2236328 L131.325195,12.4726562 L132.608398,12.4726562 L132.608398,18.8710938 Z M137.121582,17.4912109 L135.047363,17.4912109 L134.616699,18.8710938 L133.276367,18.8710938 L135.434082,12.4726562 L136.748047,12.4726562 L138.896973,18.8710938 L137.556641,18.8710938 L137.121582,17.4912109 Z M135.36377,16.4848633 L136.80957,16.4848633 L136.102051,14.2304688 L136.075684,14.2304688 L135.36377,16.4848633 Z M142.821289,17.1879883 L142.847656,17.1879883 L144.491211,12.4726562 L146.165527,12.4726562 L146.165527,18.8710938 L144.882324,18.8710938 L144.882324,14.5029297 L144.855957,14.4985352 L143.273926,18.8710938 L142.403809,18.8710938 L140.821777,14.4897461 L140.79541,14.4941406 L140.79541,18.8710938 L139.512207,18.8710938 L139.512207,12.4726562 L141.195312,12.4726562 L142.821289,17.1879883 Z M152.515625,18.8710938 L151.232422,18.8710938 L151.232422,16.2124023 L148.626465,16.2124023 L148.626465,18.8710938 L147.343262,18.8710938 L147.343262,12.4726562 L148.626465,12.4726562 L148.626465,15.2236328 L151.232422,15.2236328 L151.232422,12.4726562 L152.515625,12.4726562 L152.515625,18.8710938 Z M155.903809,15.315918 L156.018066,15.7026367 L156.044434,15.7070312 L157.38916,12.4726562 L158.74707,12.4726562 L156.413574,17.6582031 C156.229003,18.0712911 156.006349,18.3920887 155.745605,18.6206055 C155.484862,18.8491222 155.12012,18.9633789 154.651367,18.9633789 C154.475585,18.9633789 154.318848,18.9479982 154.181152,18.9172363 C154.043456,18.8864745 153.885255,18.8417972 153.706543,18.7832031 L153.855957,17.8647461 C153.987794,17.9028322 154.104248,17.9313964 154.205322,17.9504395 C154.306397,17.9694825 154.408203,17.9790039 154.510742,17.9790039 C154.750978,17.9790039 154.935546,17.9270025 155.064453,17.822998 C155.19336,17.7189936 155.294433,17.5644542 155.367676,17.359375 L155.464355,17.1176758 L153.209961,12.4726562 L154.594238,12.4726562 L155.903809,15.315918 Z" id="ДУ-ННЦ-&quot;Інститут-кар"></path>
        </g>
    </g>
</svg>